PathFileType	4	(X/Y/Z)	 s06c0301.trc
DataRate	CameraRate	NumFrames	NumMarkers	Units	OrigDataRate	OrigDataStartFrame	OrigNumFrames
200	200	5	48	mm	200	1251	2000
Frame#	Time	racr			lacr			c7			jug			rlel			rdr			llel			ldr			s2			lic			ric			lasi			rasi			rpsi			lpsi			rgt			lgt			rth1			rth2			rth3			rth4			rlfc			rmfc			rsh1			rsh2			rsh3			rsh4			rlmal			rcal			rtoe			rmt5			lth1			lth2			lth4			lth3			llfc			lmfc			llmal			lcal			lmt5			lsh1			lsh2			lsh3			lsh4			ltoe			SBIKE			LBIKE			RBIKE			
		X1	Y1	Z1	X2	Y2	Z2	X3	Y3	Z3	X4	Y4	Z4	X5	Y5	Z5	X6	Y6	Z6	X7	Y7	Z7	X8	Y8	Z8	X9	Y9	Z9	X10	Y10	Z10	X11	Y11	Z11	X12	Y12	Z12	X13	Y13	Z13	X14	Y14	Z14	X15	Y15	Z15	X16	Y16	Z16	X17	Y17	Z17	X18	Y18	Z18	X19	Y19	Z19	X20	Y20	Z20	X21	Y21	Z21	X22	Y22	Z22	X23	Y23	Z23	X24	Y24	Z24	X25	Y25	Z25	X26	Y26	Z26	X27	Y27	Z27	X28	Y28	Z28	X29	Y29	Z29	X30	Y30	Z30	X31	Y31	Z31	X32	Y32	Z32	X33	Y33	Z33	X34	Y34	Z34	X35	Y35	Z35	X36	Y36	Z36	X37	Y37	Z37	X38	Y38	Z38	X39	Y39	Z39	X40	Y40	Z40	X41	Y41	Z41	X42	Y42	Z42	X43	Y43	Z43	X44	Y44	Z44	X45	Y45	Z45	X46	Y46	Z46	X47	Y47	Z47	X48	Y48	Z48	
1251	6.2550	776.893691	1223.692411	-87.782264	765.936288	1225.904257	-388.900099	796.903573	1286.037166	-243.042729	717.260101	1133.030520	-227.830296	609.399616	1076.933893	75.235117	723.709639	922.763824	-38.566953	569.926406	1074.670627	-502.911182	712.071663	942.785674	-409.409844	214.671279	1245.817094	-153.710106	336.154981	1213.374772	-358.729040	368.557163	1141.405735	-33.935454	353.214484	1162.258696	-337.392709	379.999934	1101.317636	-76.547674	262.164324	1266.927463	-133.935338	247.595326	1279.742143	-193.247539	296.404412	1062.395419	-19.674570	314.537851	1185.933729	-382.128699	323.073895	937.670685	-13.901911	345.346223	850.893978	-27.006845	322.342211	767.956580	-36.090669	380.033356	853.261471	-39.686600	306.052446	659.450683	-49.504036	286.706382	640.152572	-160.265576	252.911318	552.087183	-24.170489	234.989948	469.113065	-43.997146	179.276017	401.170934	-46.241447	254.067940	463.515913	-80.011028	133.100278	334.976903	-54.062745	82.384932	366.759132	-100.642225	187.415722	109.339103	-96.547468	127.345236	189.616041	-30.804813	358.872907	1084.419921	-415.465224	433.798283	1040.017614	-415.682194	458.759585	1061.181798	-395.677004	477.775018	962.371568	-425.520433	524.548153	846.883390	-401.404433	531.273955	831.080119	-284.034291	272.492365	559.400350	-380.237338	191.162907	553.499785	-331.441303	361.345299	453.553135	-405.047001	455.455715	756.328115	-419.513602	415.510094	681.545161	-399.319326	340.901969	632.641413	-395.161620	437.889511	668.029339	-369.811679	444.510900	432.018294	-345.707260	-203.247029	870.256178	-207.502720	-49.688567	84.676994	-414.613942	-49.498515	80.722477	-17.377849	
1252	6.2600	776.243076	1222.416387	-86.701252	764.794744	1224.988860	-388.940202	796.740391	1285.174219	-242.361058	715.876278	1132.744542	-227.888260	608.294615	1076.609169	76.265196	723.274681	922.648456	-37.954376	566.867850	1073.816263	-500.758156	710.980932	943.063303	-408.713224	214.442343	1248.137191	-154.118998	335.720079	1214.543224	-359.136286	366.317682	1143.795829	-33.752392	352.191741	1162.738402	-337.497737	378.047427	1103.819632	-76.066539	261.780199	1269.366475	-134.683701	247.509940	1281.620229	-194.225143	296.805684	1065.142248	-19.229756	312.169675	1186.136405	-383.242384	326.608336	939.368013	-15.246642	351.345078	853.297339	-28.949944	330.587235	769.692290	-38.363377	386.023920	856.877865	-41.569742	316.031733	661.397196	-52.085496	294.520605	644.331554	-162.462703	259.475503	556.285229	-25.884652	236.930333	473.804052	-47.119745	179.807053	408.378347	-46.965550	256.389228	467.575660	-82.132584	130.179114	343.003003	-54.474553	79.405648	375.571689	-100.825458	178.478128	115.486346	-96.421668	120.368524	197.505249	-30.832804	354.788205	1082.718295	-416.055849	429.211442	1037.217656	-416.715825	454.612309	1058.432951	-397.810124	471.874282	958.973969	-425.860653	517.359999	842.667933	-402.445899	524.308594	826.419762	-285.567084	274.233030	548.262355	-379.891757	193.608864	539.848770	-329.977411	366.469883	446.110085	-405.871300	450.812849	750.209357	-420.326116	413.401242	674.304791	-399.823328	340.271380	623.208205	-395.005385	436.296462	661.467576	-370.376275	451.063036	427.525788	-347.443372	-203.245787	870.323830	-207.734985	-49.745272	84.683910	-414.652422	-49.619848	81.063764	-17.190693	
1253	6.2650	775.500996	1221.420434	-85.294473	763.736223	1223.904594	-389.378045	796.683185	1284.281876	-241.790528	714.332464	1132.619904	-227.703275	607.252979	1076.283425	77.308590	722.693824	922.546539	-37.693220	563.585184	1072.899678	-498.539428	709.756973	943.314929	-407.996307	214.129512	1250.004548	-155.406316	335.387673	1215.248870	-359.557507	364.462379	1146.409630	-33.088020	351.175873	1162.889462	-337.562084	376.671478	1106.498598	-75.001049	261.212132	1271.655278	-135.515169	247.325947	1283.090598	-195.190118	297.185003	1067.944189	-18.429505	309.084134	1185.262725	-383.495604	329.733713	941.137064	-16.574161	357.238927	855.720234	-30.599369	338.997098	771.465475	-40.217556	391.640103	860.392751	-43.405681	325.959363	663.775981	-54.689913	302.767200	648.621520	-165.225701	265.971070	560.248394	-27.601823	239.883063	478.800436	-48.544301	180.181510	415.568726	-47.659909	258.671629	471.709314	-83.735714	127.538000	351.015302	-54.800418	75.960280	385.782137	-99.935391	170.220444	122.204233	-96.301705	113.816967	205.451699	-30.959093	350.464509	1080.434010	-416.330088	424.048834	1033.867198	-418.040216	450.242744	1055.414495	-401.024548	465.459072	954.919892	-426.717481	509.762444	838.059318	-403.784152	516.944134	820.950147	-287.058083	276.274779	536.821961	-379.279251	196.163373	526.211701	-328.887330	371.701270	438.241573	-406.218600	445.945702	743.721644	-420.860107	411.101480	666.637579	-400.067875	340.452491	612.889815	-393.586932	434.876910	654.329611	-370.907728	457.225097	422.125252	-348.311636	-203.158577	870.375127	-207.964282	-49.796069	84.666905	-414.689725	-49.683925	81.088688	-17.243080	
1254	6.2700	774.477672	1220.413071	-84.081400	762.751851	1222.543235	-390.151847	796.715333	1283.400710	-241.294621	712.658751	1132.625858	-227.822911	606.929761	1075.685285	78.379579	722.060971	922.360128	-37.599403	560.247028	1071.937719	-496.481014	708.574399	943.287088	-407.365781	216.372219	1250.039685	-158.618300	335.032214	1215.495552	-359.988684	362.839608	1148.627035	-32.279969	350.169859	1162.699519	-337.574635	375.541921	1108.531263	-73.538021	261.490753	1272.725795	-136.775956	247.015058	1284.140157	-196.135577	297.699027	1070.206350	-16.916637	306.263287	1184.219432	-384.166847	333.788285	942.722410	-17.692969	363.118893	858.342553	-31.960730	347.277221	773.682317	-41.819142	396.818807	863.913113	-45.560223	335.537135	666.453683	-57.008842	311.012235	652.703943	-167.824050	272.166080	563.899757	-29.163159	242.640684	483.999198	-49.518508	180.562750	422.663068	-48.098111	260.789254	475.783630	-85.202342	124.966010	358.944245	-55.086009	74.697799	393.658977	-101.075624	162.452201	129.288392	-96.308938	108.028632	213.789590	-31.070098	345.917828	1077.641879	-416.570673	418.726314	1029.891276	-419.386353	445.558345	1051.070261	-402.880235	458.294482	949.990567	-427.348417	502.050376	833.035062	-405.212938	509.465324	815.007886	-288.614603	278.530392	525.399945	-378.500519	199.430229	512.282803	-327.904254	376.569300	429.892003	-406.911642	441.042067	736.811267	-421.476692	408.873607	658.673713	-400.338839	340.016728	602.749397	-393.187754	433.308474	647.166534	-371.409389	462.832406	415.793675	-349.115735	-203.067442	870.431284	-208.143441	-49.784124	84.721509	-414.785761	-49.691210	81.219039	-17.309289	
1255	6.2750	773.369876	1219.447695	-82.941946	761.849574	1220.760531	-391.175379	796.720167	1282.469800	-240.859731	711.191525	1132.475391	-227.990338	605.127096	1075.404725	79.152968	721.627826	922.396267	-37.422041	557.039915	1070.629347	-494.294300	707.556103	943.255432	-406.775105	216.476777	1251.043892	-159.430220	334.673077	1215.153395	-360.430396	361.432083	1150.470873	-31.677229	349.176677	1162.156220	-337.524273	374.849165	1110.545951	-72.541990	261.228342	1274.015563	-137.730984	246.717499	1284.643806	-196.909897	298.972424	1072.102816	-16.288152	303.602107	1182.792384	-384.622783	337.280097	944.452106	-19.015599	368.455382	860.997655	-33.718222	355.198141	775.838220	-43.248353	402.703095	867.612648	-46.090281	344.439945	669.365632	-59.204733	319.044942	656.508444	-170.212815	277.869031	567.394719	-30.529082	245.180893	488.722351	-50.715172	181.010534	429.530956	-48.583237	262.558348	479.818512	-86.590677	122.829660	366.973159	-55.328495	72.947660	402.764822	-101.241522	155.541561	136.825090	-96.263281	102.713775	222.457465	-31.115585	341.193503	1074.517491	-416.779865	413.039173	1025.355681	-420.702220	440.722809	1046.799243	-406.414433	450.628977	944.766888	-428.939879	494.248402	827.547096	-406.466369	502.337514	808.611905	-290.075589	281.051946	513.722973	-377.768653	202.404026	499.039853	-326.834476	380.901141	420.737319	-407.284814	436.146693	729.448436	-422.167254	406.583633	650.248027	-400.601295	339.630695	592.292224	-392.829476	431.652796	639.637306	-371.612740	467.773943	408.520455	-349.986409	-202.963836	870.379494	-208.334589	-49.775950	84.539159	-414.750613	-49.659816	81.126428	-17.300611	
